<svg xmlns="http://www.w3.org/2000/svg" id="canvas" viewBox="379.240 182.131 775.389 236.046"><path d="M 382.34,309.60 C 381.86 312.79, 383.24 317.58, 383.74 325.26 C 384.24 332.93, 384.40 338.36, 384.86 347.98 C 385.31 357.61, 385.63 364.24, 386.00 373.40 C 386.37 382.56, 386.48 386.92, 386.70 393.80 C 386.92 400.68, 386.46 403.58, 387.10 407.79 C 387.73 412.00, 388.39 414.09, 389.88 414.84 C 391.37 415.60, 393.42 415.30, 394.56 411.57 C 395.70 407.84, 394.96 404.55, 395.59 396.19 C 396.21 387.83, 396.45 382.00, 397.68 369.76 C 398.91 357.51, 399.74 349.48, 401.74 334.97 C 403.74 320.45, 405.05 311.88, 407.67 297.18 C 410.29 282.49, 411.86 274.69, 414.83 261.49 C 417.79 248.29, 419.47 241.86, 422.49 231.18 C 425.52 220.51, 427.13 215.62, 429.96 208.12 C 432.79 200.61, 434.52 197.51, 436.67 193.66 C 438.82 189.82, 439.38 189.12, 440.71 188.88 C 442.04 188.65, 441.74 189.10, 443.32 192.48 C 444.89 195.86, 446.38 198.69, 448.59 205.79 C 450.80 212.90, 452.06 217.89, 454.36 228.01 C 456.65 238.14, 457.83 244.48, 460.06 256.42 C 462.28 268.36, 463.40 275.22, 465.47 287.71 C 467.55 300.20, 468.58 306.90, 470.44 318.87 C 472.29 330.83, 473.24 336.91, 474.73 347.52 C 476.22 358.12, 476.95 363.27, 477.91 371.89 C 478.86 380.50, 479.14 384.53, 479.49 390.58 C 479.84 396.64, 479.46 398.74, 479.65 402.16 C 479.84 405.58, 479.83 406.55, 480.45 407.68 C 481.06 408.81, 481.99 408.93, 482.73 407.81 C 483.48 406.70, 484.06 405.62, 484.18 402.11 C 484.29 398.60, 483.97 396.38, 483.31 390.27 C 482.64 384.15, 482.07 380.14, 480.85 371.52 C 479.64 362.89, 478.85 357.75, 477.23 347.15 C 475.62 336.55, 474.65 330.47, 472.76 318.50 C 470.88 306.54, 469.84 299.83, 467.82 287.32 C 465.80 274.81, 464.71 267.95, 462.65 255.95 C 460.60 243.96, 459.55 237.61, 457.55 227.34 C 455.55 217.07, 454.62 212.09, 452.64 204.63 C 450.67 197.17, 450.17 193.93, 447.69 190.04 C 445.20 186.15, 443.10 184.85, 440.21 185.18 C 437.32 185.51, 435.83 187.29, 433.22 191.68 C 430.61 196.06, 429.77 199.35, 427.17 207.13 C 424.58 214.90, 423.11 219.78, 420.24 230.56 C 417.36 241.35, 415.72 247.79, 412.80 261.04 C 409.88 274.29, 408.31 282.10, 405.65 296.82 C 402.99 311.54, 401.67 320.13, 399.50 334.65 C 397.33 349.17, 396.37 357.20, 394.80 369.43 C 393.24 381.66, 392.74 387.53, 391.67 395.79 C 390.59 404.05, 389.49 407.12, 389.42 410.73 C 389.36 414.34, 390.84 414.52, 391.35 413.84 C 391.87 413.15, 392.14 411.36, 391.98 407.32 C 391.82 403.27, 391.04 400.41, 390.54 393.60 C 390.04 386.78, 389.95 382.40, 389.49 373.24 C 389.04 364.09, 388.75 357.46, 388.28 347.82 C 387.82 338.18, 387.61 332.75, 387.18 325.05 C 386.75 317.34, 387.10 312.40, 386.13 309.31 C 385.16 306.22, 382.82 306.41, 382.34 309.60" style="stroke: black; fill: black;"/><path d="M 412.41,347.05 C 413.70 347.86, 414.66 347.94, 418.30 347.59 C 421.93 347.24, 424.47 346.34, 430.57 345.31 C 436.67 344.28, 440.81 343.61, 448.80 342.43 C 456.80 341.26, 462.42 340.57, 470.53 339.44 C 478.64 338.32, 483.13 337.69, 489.36 336.80 C 495.59 335.90, 499.31 336.03, 501.69 334.98 C 504.06 333.94, 503.81 331.97, 501.24 331.58 C 498.67 331.18, 495.10 332.24, 488.86 333.00 C 482.61 333.77, 478.13 334.40, 470.00 335.41 C 461.88 336.41, 456.26 337.12, 448.23 338.05 C 440.20 338.97, 436.03 339.40, 429.86 340.02 C 423.68 340.65, 420.96 340.49, 417.36 341.19 C 413.76 341.90, 412.84 342.39, 411.85 343.56 C 410.85 344.73, 411.12 346.25, 412.41 347.05" style="stroke: black; fill: black;"/><path d="M 555.91,340.33 C 556.74 341.74, 557.86 342.87, 561.14 343.78 C 564.42 344.68, 567.10 344.53, 572.31 344.87 C 577.51 345.21, 580.98 345.33, 587.16 345.47 C 593.35 345.60, 596.98 345.47, 603.24 345.54 C 609.51 345.61, 613.09 345.68, 618.50 345.81 C 623.92 345.93, 626.56 346.29, 630.32 346.18 C 634.08 346.07, 635.88 346.03, 637.30 345.24 C 638.72 344.45, 638.79 343.14, 637.43 342.23 C 636.07 341.33, 634.26 341.04, 630.49 340.69 C 626.72 340.35, 624.02 340.53, 618.58 340.50 C 613.15 340.47, 609.55 340.65, 603.31 340.54 C 597.08 340.43, 593.48 340.40, 587.42 339.97 C 581.35 339.55, 577.94 339.11, 572.97 338.40 C 567.99 337.70, 565.75 336.79, 562.55 336.45 C 559.34 336.12, 558.29 335.96, 556.96 336.73 C 555.63 337.51, 555.07 338.92, 555.91 340.33" style="stroke: black; fill: black;"/><path d="M 737.44,221.62 C 736.28 222.96, 736.34 224.48, 735.17 229.09 C 733.99 233.69, 733.51 236.99, 731.57 244.65 C 729.63 252.31, 728.23 257.59, 725.46 267.39 C 722.69 277.18, 720.92 283.21, 717.72 293.61 C 714.53 304.01, 712.56 309.72, 709.49 319.39 C 706.41 329.05, 704.72 333.90, 702.34 341.93 C 699.96 349.95, 698.77 353.44, 697.57 359.51 C 696.38 365.58, 695.75 367.96, 696.37 372.29 C 696.99 376.62, 697.84 378.75, 700.67 381.17 C 703.50 383.58, 705.92 383.97, 710.51 384.35 C 715.09 384.73, 717.83 384.02, 723.61 383.05 C 729.38 382.08, 732.82 381.04, 739.40 379.51 C 745.99 377.97, 749.79 376.92, 756.54 375.38 C 763.29 373.83, 766.89 373.07, 773.14 371.78 C 779.39 370.50, 782.43 369.99, 787.78 368.95 C 793.12 367.91, 795.55 367.54, 799.86 366.58 C 804.18 365.63, 806.39 365.31, 809.35 364.17 C 812.32 363.03, 813.19 362.16, 814.68 360.87 C 816.18 359.58, 816.67 358.79, 816.84 357.71 C 817.01 356.64, 816.49 355.91, 815.54 355.50 C 814.59 355.08, 813.88 355.31, 812.10 355.64 C 810.31 355.97, 809.40 356.07, 806.63 357.15 C 803.87 358.23, 802.25 359.61, 798.27 361.02 C 794.29 362.44, 791.95 362.94, 786.74 364.23 C 781.53 365.51, 778.45 366.08, 772.22 367.45 C 765.99 368.83, 762.35 369.61, 755.58 371.08 C 748.81 372.56, 744.95 373.52, 738.39 374.82 C 731.83 376.13, 728.29 376.92, 722.80 377.63 C 717.31 378.33, 714.63 378.55, 710.93 378.35 C 707.22 378.15, 706.22 377.97, 704.28 376.61 C 702.33 375.25, 701.78 374.82, 701.21 371.53 C 700.63 368.24, 700.55 365.92, 701.39 360.17 C 702.23 354.42, 703.23 350.78, 705.40 342.79 C 707.56 334.81, 709.20 329.91, 712.23 320.25 C 715.25 310.59, 717.22 304.86, 720.51 294.48 C 723.80 284.10, 725.68 278.09, 728.70 268.34 C 731.71 258.60, 733.32 253.37, 735.58 245.75 C 737.84 238.14, 738.91 234.94, 740.00 230.26 C 741.08 225.59, 741.52 224.12, 741.00 222.39 C 740.49 220.66, 738.61 220.28, 737.44 221.62" style="stroke: black; fill: black;"/><path d="M 860.12,237.89 C 859.40 239.43, 859.81 240.85, 860.19 245.14 C 860.57 249.42, 861.21 252.30, 862.02 259.33 C 862.83 266.35, 863.44 271.36, 864.24 280.27 C 865.03 289.17, 865.36 294.66, 865.98 303.86 C 866.61 313.05, 866.81 318.13, 867.36 326.24 C 867.90 334.36, 868.09 338.41, 868.70 344.43 C 869.30 350.45, 869.57 352.82, 870.40 356.35 C 871.22 359.87, 871.86 361.03, 872.83 362.06 C 873.80 363.10, 874.79 362.84, 875.23 361.52 C 875.67 360.21, 875.49 359.01, 875.02 355.49 C 874.54 351.97, 873.68 349.84, 872.85 343.93 C 872.02 338.03, 871.57 334.04, 870.88 325.98 C 870.20 317.92, 869.98 312.83, 869.43 303.63 C 868.87 294.43, 868.65 288.92, 868.10 279.98 C 867.55 271.03, 867.16 265.99, 866.67 258.90 C 866.18 251.81, 866.23 248.83, 865.66 244.53 C 865.08 240.23, 864.90 238.72, 863.79 237.39 C 862.69 236.07, 860.84 236.34, 860.12 237.89" style="stroke: black; fill: black;"/><path d="M 856.65,285.11 C 858.22 284.18, 858.79 281.68, 859.73 279.73 C 860.67 277.79, 860.24 276.48, 861.35 275.39 C 862.46 274.30, 862.66 273.28, 865.29 274.29 C 867.91 275.29, 870.56 276.68, 874.49 280.41 C 878.42 284.13, 880.95 287.40, 884.94 292.90 C 888.92 298.40, 890.98 301.84, 894.42 307.91 C 897.87 313.98, 899.48 317.46, 902.15 323.26 C 904.83 329.06, 906.05 332.09, 907.80 336.91 C 909.54 341.73, 909.87 344.13, 910.86 347.35 C 911.84 350.56, 911.96 351.54, 912.73 353.00 C 913.50 354.45, 914.21 354.35, 914.69 354.62 C 915.17 354.89, 915.03 354.17, 915.13 354.35 C 915.24 354.52, 914.81 355.35, 915.22 355.50 C 915.62 355.65, 916.47 355.89, 917.16 355.12 C 917.85 354.35, 918.67 353.63, 918.66 351.65 C 918.65 349.68, 918.34 348.57, 917.11 345.23 C 915.87 341.89, 914.70 339.75, 912.50 334.98 C 910.31 330.20, 908.99 327.20, 906.13 321.37 C 903.27 315.53, 901.65 312.04, 898.20 305.79 C 894.75 299.55, 892.82 296.02, 888.87 290.15 C 884.91 284.29, 882.67 280.91, 878.43 276.46 C 874.19 272.01, 871.93 269.48, 867.67 267.90 C 863.42 266.33, 860.54 266.94, 857.17 268.61 C 853.80 270.27, 851.89 273.09, 850.83 276.25 C 849.77 279.41, 850.72 282.62, 851.88 284.39 C 853.04 286.17, 855.08 286.04, 856.65 285.11" style="stroke: black; fill: black;"/><path d="M 853.89,324.42 C 855.26 325.21, 856.50 325.12, 859.93 324.71 C 863.37 324.29, 865.67 323.30, 871.05 322.35 C 876.44 321.40, 880.17 320.78, 886.87 319.95 C 893.57 319.12, 897.67 318.77, 904.57 318.20 C 911.46 317.64, 915.15 317.39, 921.34 317.12 C 927.53 316.85, 930.60 316.75, 935.51 316.85 C 940.42 316.95, 942.57 317.42, 945.89 317.61 C 949.22 317.80, 950.26 317.79, 952.13 317.80 C 953.99 317.80, 954.39 318.11, 955.23 317.66 C 956.07 317.20, 956.68 316.59, 956.32 315.52 C 955.95 314.46, 955.43 313.24, 953.41 312.34 C 951.39 311.43, 949.81 311.12, 946.20 310.99 C 942.60 310.86, 940.42 311.35, 935.40 311.67 C 930.37 311.99, 927.32 312.17, 921.09 312.58 C 914.86 313.00, 911.18 313.26, 904.23 313.73 C 897.29 314.20, 893.16 314.41, 886.36 314.94 C 879.56 315.48, 875.76 315.83, 870.22 316.41 C 864.68 317.00, 862.08 317.00, 858.65 317.87 C 855.22 318.74, 854.03 319.45, 853.07 320.76 C 852.12 322.07, 852.52 323.63, 853.89 324.42" style="stroke: black; fill: black;"/><path d="M 959.56,290.93 C 960.79 291.47, 961.38 290.90, 962.27 290.82 C 963.15 290.75, 963.16 290.53, 964.00 290.54 C 964.84 290.55, 965.20 290.25, 966.48 290.88 C 967.77 291.52, 968.72 291.94, 970.41 293.71 C 972.10 295.49, 973.47 296.81, 974.92 299.77 C 976.38 302.73, 977.06 304.75, 977.70 308.50 C 978.34 312.26, 978.42 314.64, 978.15 318.57 C 977.87 322.50, 977.38 324.77, 976.34 328.16 C 975.30 331.54, 973.92 333.04, 972.95 335.50 C 971.97 337.96, 971.49 338.92, 971.47 340.47 C 971.45 342.02, 971.83 342.67, 972.84 343.26 C 973.85 343.85, 974.95 344.23, 976.51 343.43 C 978.07 342.63, 978.65 341.62, 980.66 339.28 C 982.67 336.93, 983.57 334.67, 986.58 331.69 C 989.59 328.70, 991.78 326.85, 995.70 324.37 C 999.62 321.88, 1002.13 320.64, 1006.17 319.24 C 1010.22 317.84, 1012.56 317.49, 1015.91 317.38 C 1019.26 317.27, 1020.88 317.83, 1022.92 318.69 C 1024.96 319.54, 1025.38 320.00, 1026.13 321.65 C 1026.88 323.30, 1027.19 324.16, 1026.67 326.96 C 1026.14 329.75, 1025.72 331.86, 1023.49 335.63 C 1021.26 339.39, 1019.44 341.82, 1015.52 345.79 C 1011.60 349.75, 1008.82 352.00, 1003.91 355.45 C 998.99 358.90, 995.81 360.54, 990.95 363.04 C 986.09 365.54, 983.25 366.33, 979.61 367.97 C 975.96 369.60, 973.91 369.97, 972.73 371.24 C 971.54 372.50, 971.91 373.93, 973.67 374.28 C 975.44 374.62, 977.60 374.27, 981.55 372.96 C 985.49 371.66, 988.35 370.41, 993.40 367.74 C 998.45 365.07, 1001.63 363.22, 1006.81 359.62 C 1012.00 356.02, 1014.94 353.84, 1019.34 349.72 C 1023.75 345.61, 1025.95 343.30, 1028.83 339.03 C 1031.72 334.75, 1032.96 332.45, 1033.77 328.34 C 1034.59 324.23, 1034.49 321.74, 1032.91 318.45 C 1031.33 315.17, 1029.35 313.47, 1025.88 311.92 C 1022.42 310.36, 1019.93 310.40, 1015.58 310.67 C 1011.23 310.94, 1008.75 311.66, 1004.11 313.27 C 999.47 314.88, 996.87 316.23, 992.36 318.71 C 987.85 321.20, 985.43 322.91, 981.56 325.69 C 977.68 328.48, 975.40 329.88, 973.00 332.63 C 970.59 335.39, 969.73 337.13, 969.51 339.47 C 969.30 341.81, 970.47 343.36, 971.93 344.33 C 973.39 345.31, 974.97 345.40, 976.83 344.35 C 978.69 343.31, 979.87 341.99, 981.22 339.11 C 982.58 336.22, 982.82 333.97, 983.60 329.95 C 984.39 325.93, 984.89 323.50, 985.15 319.01 C 985.41 314.52, 985.44 311.94, 984.90 307.47 C 984.37 303.00, 983.89 300.67, 982.48 296.67 C 981.08 292.66, 980.22 290.47, 977.88 287.45 C 975.54 284.43, 973.78 282.89, 970.79 281.55 C 967.79 280.21, 965.60 280.34, 962.90 280.75 C 960.19 281.17, 958.60 282.14, 957.26 283.61 C 955.91 285.09, 955.69 286.67, 956.15 288.13 C 956.61 289.60, 958.34 290.40, 959.56 290.93" style="stroke: black; fill: black;"/><path d="M 1127.91,264.62 C 1126.77 263.43, 1125.38 262.42, 1122.44 262.50 C 1119.49 262.57, 1117.42 263.55, 1113.17 265.00 C 1108.92 266.45, 1105.93 267.43, 1101.17 269.76 C 1096.41 272.08, 1093.57 273.61, 1089.36 276.63 C 1085.16 279.66, 1082.70 281.24, 1080.15 284.90 C 1077.59 288.56, 1076.37 290.93, 1076.59 294.92 C 1076.82 298.90, 1078.21 301.15, 1081.27 304.82 C 1084.32 308.49, 1086.87 309.98, 1091.89 313.29 C 1096.91 316.59, 1100.36 318.14, 1106.38 321.35 C 1112.39 324.56, 1116.17 326.17, 1121.95 329.35 C 1127.73 332.54, 1130.95 334.21, 1135.28 337.27 C 1139.62 340.33, 1141.56 342.09, 1143.61 344.64 C 1145.67 347.18, 1145.86 347.84, 1145.58 350.00 C 1145.30 352.16, 1144.90 352.98, 1142.20 355.42 C 1139.51 357.87, 1137.16 359.57, 1132.10 362.23 C 1127.04 364.89, 1123.34 366.41, 1116.90 368.72 C 1110.46 371.03, 1106.32 372.13, 1099.90 373.78 C 1093.48 375.44, 1089.75 375.95, 1084.79 377.01 C 1079.83 378.06, 1076.93 377.97, 1075.09 379.04 C 1073.26 380.12, 1073.49 381.89, 1075.59 382.38 C 1077.70 382.87, 1080.53 382.29, 1085.62 381.48 C 1090.71 380.67, 1094.48 379.97, 1101.06 378.32 C 1107.63 376.67, 1111.78 375.50, 1118.47 373.24 C 1125.16 370.97, 1128.96 369.71, 1134.52 367.01 C 1140.07 364.31, 1142.83 363.01, 1146.24 359.73 C 1149.65 356.46, 1151.22 354.36, 1151.57 350.65 C 1151.92 346.94, 1150.70 344.68, 1148.00 341.18 C 1145.30 337.69, 1142.85 336.36, 1138.08 333.19 C 1133.32 330.01, 1130.05 328.51, 1124.18 325.30 C 1118.30 322.09, 1114.54 320.42, 1108.69 317.13 C 1102.84 313.84, 1099.48 312.08, 1094.90 308.86 C 1090.33 305.64, 1088.22 303.87, 1085.81 301.02 C 1083.40 298.16, 1082.98 297.06, 1082.86 294.59 C 1082.75 292.12, 1083.21 291.21, 1085.24 288.65 C 1087.27 286.09, 1089.24 284.35, 1092.99 281.81 C 1096.74 279.26, 1099.50 277.79, 1103.97 275.92 C 1108.44 274.04, 1111.38 273.39, 1115.35 272.44 C 1119.32 271.48, 1121.25 271.94, 1123.81 271.14 C 1126.36 270.34, 1127.31 269.75, 1128.13 268.45 C 1128.95 267.14, 1129.05 265.81, 1127.91 264.62" style="stroke: black; fill: black;"/></svg>